<?xml version="1.0" encoding="UTF-8" standalone="no"?><svg width="200" height="200" viewBox="0 0 1024 1024" xmlns="http://www.w3.org/2000/svg" fill="#007fff"><path d="M0 0m64 0l896 0q64 0 64 64l0 0q0 64-64 64l-896 0q-64 0-64-64l0 0q0-64 64-64Z" /><path d="M0 896m64 0l896 0q64 0 64 64l0 0q0 64-64 64l-896 0q-64 0-64-64l0 0q0-64 64-64Z" /><path d="M64 256m64 0l0 0q64 0 64 64l0 384q0 64-64 64l0 0q-64 0-64-64l0-384q0-64 64-64Z" /><path d="M448 256m64 0l0 0q64 0 64 64l0 192q0 64-64 64l0 0q-64 0-64-64l0-192q0-64 64-64Z" /><path d="M832 256m64 0l0 0q64 0 64 64l0 384q0 64-64 64l0 0q-64 0-64-64l0-384q0-64 64-64Z" /><path d="M256 256m64 0l192 0q64 0 64 64l0 0q0 64-64 64l-192 0q-64 0-64-64l0 0q0-64 64-64Z" /><path d="M640 256m64 0l192 0q64 0 64 64l0 0q0 64-64 64l-192 0q-64 0-64-64l0 0q0-64 64-64Z" /><path d="M256 448m64 0l192 0q64 0 64 64l0 0q0 64-64 64l-192 0q-64 0-64-64l0 0q0-64 64-64Z" /><path d="M640 448m64 0l192 0q64 0 64 64l0 0q0 64-64 64l-192 0q-64 0-64-64l0 0q0-64 64-64Z" /><path d="M256 640m64 0l192 0q64 0 64 64l0 0q0 64-64 64l-192 0q-64 0-64-64l0 0q0-64 64-64Z" /><path d="M640 640m64 0l192 0q64 0 64 64l0 0q0 64-64 64l-192 0q-64 0-64-64l0 0q0-64 64-64Z" /><path d="M256 448m64 0l0 0q64 0 64 64l0 192q0 64-64 64l0 0q-64 0-64-64l0-192q0-64 64-64Z" /></svg>